<?xml version="1.0" standalone="no"?>
<!DOCTYPE svg PUBLIC "-//W3C//DTD SVG 20010904//EN"
 "http://www.w3.org/TR/2001/REC-SVG-20010904/DTD/svg10.dtd">
<svg version="1.0" xmlns="http://www.w3.org/2000/svg"
 width="720.000000pt" height="720.000000pt" viewBox="0 0 720.000000 720.000000"
 preserveAspectRatio="xMidYMid meet">
<metadata>
Created by potrace 1.14, written by Peter Selinger 2001-2017
</metadata>
<g transform="translate(0.000000,720.000000) scale(0.100000,-0.100000)"
fill="#000000" stroke="none">
<path d="M6275 6611 c-16 -9 -32 -19 -35 -22 -3 -3 -36 -23 -75 -44 -38 -21
-74 -41 -80 -45 -5 -5 -26 -17 -45 -28 -19 -11 -91 -52 -158 -91 -68 -39 -127
-71 -131 -71 -5 0 -31 -55 -36 -80 -6 -27 -28 -96 -35 -109 -9 -19 -41 -114
-44 -133 -1 -7 -7 -22 -13 -33 -6 -11 -11 -24 -11 -28 1 -11 -36 -121 -42
-127 -3 -3 -5 -12 -5 -20 0 -8 -5 -26 -12 -39 -6 -14 -10 -28 -7 -33 3 -4 0
-8 -5 -8 -6 0 -10 -3 -10 -7 1 -5 1 -10 -1 -13 -1 -3 -3 -16 -6 -29 -2 -14 -9
-30 -14 -36 -10 -12 -4 -45 8 -45 3 0 36 18 73 40 37 22 72 40 78 40 6 0 11 5
11 10 0 6 4 10 9 10 6 0 38 17 73 37 35 21 66 36 71 35 4 -1 7 3 7 8 0 6 7 10
15 10 8 0 19 -17 25 -42 7 -24 16 -59 21 -78 5 -19 11 -46 13 -60 2 -14 9 -45
16 -70 11 -40 18 -71 24 -107 1 -7 5 -16 9 -19 4 -4 7 -17 7 -29 0 -12 6 -28
13 -37 11 -15 15 -15 44 0 80 42 238 136 241 144 2 4 7 8 12 8 11 0 241 129
262 147 18 16 17 31 -12 141 -11 40 -20 81 -20 92 0 11 -3 20 -7 20 -5 0 -8
10 -9 23 -2 29 -8 60 -16 72 -3 6 -9 26 -12 45 -11 66 -16 89 -26 115 -5 14
-8 25 -5 25 2 0 -2 18 -10 40 -8 22 -12 40 -10 40 2 0 -1 15 -6 33 -6 17 -13
43 -16 57 -10 50 -11 55 -13 55 -1 0 -3 7 -5 15 -2 8 -7 26 -10 40 -3 14 -8
34 -10 45 -3 11 -8 31 -11 45 -3 14 -8 38 -11 55 -9 45 -23 54 -58 36z"/>
<path d="M2668 6268 c-29 -10 -60 -18 -70 -18 -10 0 -18 -6 -19 -12 -3 -66
-12 -125 -20 -132 -13 -14 -30 6 -38 45 l-7 33 -86 -84 c-91 -90 -109 -127
-103 -211 6 -69 40 -173 55 -167 60 25 130 65 130 76 0 7 -5 22 -11 33 -6 11
-11 40 -12 65 -1 41 2 47 48 87 27 23 66 60 88 81 21 22 46 41 55 42 9 2 33 7
52 11 42 11 120 -2 170 -27 55 -28 83 -63 108 -133 l23 -65 71 24 c39 13 73
26 76 28 4 5 -19 77 -41 126 -21 47 -49 81 -98 120 -105 83 -264 116 -371 78z"/>
<path d="M4329 5983 c-14 -3 -15 -10 -7 -46 29 -120 25 -114 58 -109 54 8 98
-7 122 -41 20 -27 23 -46 25 -127 1 -52 -2 -114 -6 -137 -9 -48 -10 -47 95
-58 47 -6 61 -4 62 6 1 8 5 68 8 135 7 131 -6 204 -48 268 -28 43 -95 92 -143
105 -39 11 -133 13 -166 4z"/>
<path d="M4200 5527 c-36 -10 -69 -22 -74 -27 -4 -4 6 -52 22 -107 68 -219 75
-278 34 -278 -16 0 -31 -15 -57 -58 -19 -32 -35 -62 -35 -67 0 -13 48 -37 85
-43 51 -8 126 27 160 75 27 39 29 48 29 127 -1 85 -25 190 -81 347 l-18 50
-65 -19z"/>
<path d="M3260 5457 c-3 -3 -36 -7 -73 -10 -37 -2 -70 -6 -72 -9 -10 -10 25
-123 52 -166 62 -101 164 -129 353 -97 58 10 120 19 138 19 17 0 32 3 33 6 0
3 2 14 4 25 14 74 16 118 4 125 -15 10 -105 4 -174 -11 -27 -6 -79 -13 -115
-16 -81 -6 -102 8 -128 85 -10 29 -20 51 -22 49z"/>
<path d="M2652 5327 c-56 -19 -62 -24 -58 -43 5 -17 -8 -36 -57 -86 -66 -68
-115 -152 -119 -207 l-3 -34 70 -13 c38 -8 72 -10 76 -6 4 4 12 25 19 46 7 22
35 62 64 91 41 43 59 54 96 60 97 15 140 58 125 125 -8 36 -55 70 -97 70 -16
0 -28 5 -28 10 0 14 -15 12 -88 -13z"/>
<path d="M4480 4978 c-6 -145 -21 -234 -52 -294 -24 -50 -31 -52 -73 -24 -16
11 -33 20 -38 20 -7 0 -47 -84 -61 -127 -5 -14 6 -25 48 -50 98 -60 159 -49
223 39 70 94 99 187 109 356 l5 92 -80 0 c-58 0 -81 -4 -81 -12z"/>
<path d="M3772 4707 c-21 -24 -42 -86 -42 -119 0 -42 41 -130 118 -249 33 -54
69 -125 82 -166 23 -74 53 -133 68 -133 5 0 32 25 59 55 l50 55 -22 67 c-26
81 -64 158 -110 223 -45 65 -88 147 -81 158 3 5 -21 34 -53 66 -47 47 -60 55
-69 43z"/>
<path d="M2814 4483 c4 -32 8 -69 9 -83 1 -15 14 -34 32 -46 64 -46 111 -130
176 -318 21 -59 40 -110 43 -113 4 -4 133 35 145 43 6 5 -69 223 -99 291 -67
148 -177 257 -279 277 l-34 6 7 -57z"/>
<path d="M2337 4477 c-9 -18 -42 -83 -75 -145 -87 -163 -140 -325 -138 -417
l1 -30 78 -3 c42 -2 77 1 78 5 1 4 2 19 3 33 11 115 48 209 172 435 l43 81
-73 36 -74 37 -15 -32z"/>
<path d="M1785 4210 c-4 -12 -4 -24 -1 -27 5 -6 96 34 96 41 0 1 -20 3 -44 5
-37 1 -45 -1 -51 -19z"/>
<path d="M1435 4092 c-16 -9 -33 -21 -37 -27 -5 -7 -8 -7 -8 0 0 7 -3 7 -8 0
-7 -11 -37 -29 -87 -54 -16 -8 -32 -17 -35 -20 -3 -3 -14 -11 -25 -17 -115
-63 -293 -169 -306 -182 -9 -10 -57 -145 -108 -302 -51 -157 -96 -294 -101
-305 -16 -36 -28 -95 -21 -100 5 -2 48 19 97 47 49 28 104 59 122 70 18 10 44
26 58 34 13 9 24 13 24 10 0 -4 10 2 22 14 12 11 23 18 24 17 3 -3 48 -181 59
-232 37 -169 69 -254 82 -217 3 6 9 10 14 6 5 -3 9 -1 9 4 0 5 8 12 18 16 9 3
31 15 47 26 17 11 37 23 45 27 8 4 68 37 132 75 65 37 122 68 128 68 5 0 10 4
10 9 0 5 16 15 35 22 19 7 35 17 35 21 0 4 5 8 10 8 6 0 22 7 35 16 20 13 23
20 15 34 -6 10 -12 34 -14 52 -3 18 -5 33 -6 33 -3 0 -11 39 -13 60 -1 11 -4
22 -7 25 -3 3 -11 32 -18 65 -7 33 -15 68 -18 78 -2 9 -6 25 -8 35 -2 9 -23
91 -45 181 -23 91 -43 174 -46 185 -2 12 -10 41 -16 66 -6 25 -13 54 -14 65
-2 11 -4 22 -6 25 -1 3 -3 10 -4 15 -7 39 -19 65 -29 65 -6 0 -24 -8 -41 -18z"/>
<path d="M2531 3962 c-11 -48 -22 -103 -25 -122 -3 -19 -8 -46 -11 -60 -20
-87 -10 -369 14 -393 5 -5 26 -4 47 2 22 5 52 12 68 15 16 3 30 7 33 10 2 2 0
28 -5 57 -10 54 -8 253 2 299 4 14 9 39 11 55 3 17 12 56 20 88 15 60 19 97
10 97 -3 0 -36 9 -74 19 l-70 19 -20 -86z"/>
<path d="M4477 3869 c-15 -40 -26 -73 -25 -74 10 -8 157 -50 297 -85 90 -23
195 -55 232 -70 49 -20 71 -24 77 -16 14 18 62 115 62 124 0 20 -139 69 -335
118 -77 20 -150 38 -161 40 -12 2 -38 11 -57 19 -20 8 -42 15 -49 15 -7 0 -26
-32 -41 -71z"/>
<path d="M4040 3528 c-6 -35 -13 -68 -15 -74 -3 -11 27 -23 319 -130 66 -24
146 -57 179 -74 32 -16 62 -30 66 -30 7 0 81 121 81 132 0 10 -151 79 -249
114 -53 20 -149 55 -213 80 -65 24 -126 44 -136 44 -16 0 -22 -12 -32 -62z"/>
<path d="M3315 3494 c-33 -9 -65 -17 -72 -19 -8 -3 -9 -13 -2 -37 7 -26 4 -50
-12 -103 -44 -145 -44 -142 27 -348 l45 -134 67 20 c37 11 71 23 75 27 4 3
-13 68 -38 144 -25 75 -45 145 -45 155 0 10 7 38 16 62 28 79 35 140 23 196
-6 29 -13 53 -17 52 -4 0 -34 -7 -67 -15z"/>
<path d="M2285 3411 c-38 -13 -71 -25 -73 -26 -8 -6 93 -246 168 -395 28 -58
59 -123 68 -146 l17 -41 75 21 c63 19 74 25 72 42 -2 10 -39 91 -81 179 -72
147 -151 330 -151 351 0 5 -6 16 -13 24 -11 14 -20 13 -82 -9z"/>
<path d="M5207 3279 c-5 -20 -1 -129 7 -195 3 -24 9 -65 12 -91 3 -27 9 -75
14 -108 5 -33 12 -85 15 -115 9 -80 20 -125 31 -123 5 0 38 4 74 8 36 4 66 8
68 10 2 2 -2 41 -8 86 -6 46 -13 99 -16 117 -2 17 -6 47 -8 65 -3 17 -10 70
-16 117 -6 46 -13 118 -14 159 -3 75 -3 75 -32 77 -16 2 -50 5 -76 7 -38 4
-47 1 -51 -14z"/>
<path d="M3890 3165 c-49 -10 -55 -13 -54 -35 1 -45 15 -144 30 -215 9 -38 18
-80 20 -93 9 -45 86 -270 97 -285 11 -14 20 -13 77 10 36 15 67 28 69 29 2 2
-15 59 -37 126 -47 142 -74 255 -92 385 -14 104 -6 98 -110 78z"/>
<path d="M2891 3070 c-30 -16 -57 -32 -61 -37 -12 -12 16 -107 43 -150 31 -49
79 -144 75 -148 -2 -1 -37 -19 -78 -39 -41 -21 -76 -39 -78 -40 -5 -6 69 -136
78 -136 4 0 52 22 106 50 73 36 104 58 118 81 37 63 17 149 -66 286 -21 35
-38 71 -38 81 0 31 -21 82 -33 82 -7 -1 -36 -14 -66 -30z"/>
<path d="M4798 2882 c-16 -3 -18 -19 -19 -140 -2 -270 2 -331 32 -432 28 -97
25 -95 105 -55 l70 35 -22 67 c-20 60 -22 87 -23 262 0 108 -1 213 -1 234 l0
38 -62 -2 c-35 -2 -71 -5 -80 -7z"/>
<path d="M3522 2419 c-74 -34 -74 -34 -9 -144 31 -52 55 -78 92 -101 56 -36
94 -70 143 -129 49 -59 133 -145 141 -145 4 0 30 24 59 53 l53 54 -52 54 c-29
30 -77 85 -107 123 -36 43 -75 79 -110 98 -51 29 -79 62 -113 132 -8 16 -18
31 -24 32 -5 1 -38 -11 -73 -27z"/>
<path d="M5616 2337 c-7 -12 -25 -43 -39 -70 -25 -46 -25 -48 -6 -60 10 -6 19
-15 19 -20 0 -4 -4 -6 -9 -3 -5 3 -39 12 -76 20 -84 18 -114 9 -143 -43 -12
-22 -29 -41 -37 -45 -8 -3 -13 -11 -10 -18 2 -7 6 -39 8 -71 3 -32 7 -60 9
-63 10 -9 107 28 131 50 22 20 34 24 65 20 72 -11 97 -10 140 2 54 16 80 38
102 88 36 77 -2 153 -107 216 l-33 19 -14 -22z"/>
<path d="M4298 2134 c-51 -40 -57 -48 -47 -65 24 -46 140 -149 229 -204 115
-71 177 -119 199 -155 l16 -28 67 27 c37 14 69 29 73 33 11 11 -26 70 -74 118
-48 46 -68 61 -209 150 -45 29 -106 79 -136 111 -29 32 -55 59 -57 58 -2 0
-30 -21 -61 -45z"/>
<path d="M5167 2148 c4 -7 8 -17 8 -23 0 -19 30 -15 70 10 l40 24 -63 1 c-48
0 -61 -3 -55 -12z"/>
<path d="M5661 1948 c-16 -40 -24 -63 -26 -78 -11 -64 -18 -96 -22 -102 -2 -5
-6 -17 -8 -29 -2 -12 -16 -67 -31 -123 -14 -55 -28 -112 -30 -126 -3 -14 -8
-34 -11 -45 -4 -11 -8 -24 -9 -30 -1 -5 -5 -21 -7 -35 -3 -14 -10 -40 -16 -58
-5 -18 -10 -35 -10 -37 -1 -31 -26 -125 -33 -125 -5 0 -6 -4 -3 -10 3 -5 0
-29 -6 -52 -7 -24 -12 -46 -11 -49 0 -3 -6 -28 -14 -54 -7 -27 -14 -53 -14
-59 0 -11 35 -34 103 -68 20 -10 37 -24 37 -30 0 -6 3 -9 6 -5 3 3 24 -5 45
-19 21 -13 43 -24 49 -24 5 0 10 -3 10 -8 0 -4 15 -13 33 -21 17 -8 34 -17 37
-20 3 -3 23 -15 44 -26 22 -11 44 -25 50 -30 6 -6 27 -19 46 -28 19 -10 55
-29 80 -43 24 -13 49 -23 56 -20 6 2 37 111 69 241 42 173 61 235 71 231 7 -3
88 -48 180 -101 92 -53 173 -94 180 -91 9 4 11 13 5 33 -15 50 -42 127 -51
148 -5 11 -27 76 -49 145 -22 69 -59 179 -81 245 -22 66 -43 131 -46 145 -7
36 -20 45 -267 186 -122 70 -234 135 -248 145 -14 10 -29 16 -33 12 -3 -3 -6
-2 -6 4 0 8 -41 33 -56 33 -2 0 -8 -10 -13 -22z"/>
<path d="M4228 1612 l-36 -3 -5 -67 c-2 -37 -3 -114 -3 -172 1 -93 4 -109 24
-138 51 -70 138 -83 254 -35 38 15 80 37 95 49 l26 21 -38 61 c-21 34 -42 62
-47 62 -5 0 -35 -13 -68 -30 -96 -49 -93 -53 -85 115 l7 144 -43 -2 c-24 -1
-61 -3 -81 -5z"/>
</g>
</svg>
