<?xml version="1.0" standalone="no"?>
<!DOCTYPE svg PUBLIC "-//W3C//DTD SVG 20010904//EN"
 "http://www.w3.org/TR/2001/REC-SVG-20010904/DTD/svg10.dtd">
<svg version="1.0" xmlns="http://www.w3.org/2000/svg"
 width="713.000000pt" height="713.000000pt" viewBox="0 0 713.000000 713.000000"
 preserveAspectRatio="xMidYMid meet">
<metadata>
Created by potrace 1.14, written by Peter Selinger 2001-2017
</metadata>
<g transform="translate(0.000000,713.000000) scale(0.100000,-0.100000)"
fill="#000000" stroke="none">
<path d="M2500 6588 c-85 -49 -194 -163 -231 -242 -40 -86 -46 -187 -19 -294
26 -100 150 -347 212 -422 l29 -35 -22 -18 -22 -18 44 -64 c24 -36 47 -65 50
-65 17 0 107 100 113 126 11 49 -13 114 -60 164 -12 14 -44 63 -69 110 -96
177 -135 280 -135 354 0 87 85 204 190 264 l48 28 -33 72 c-19 40 -35 72 -37
72 -2 0 -28 -15 -58 -32z"/>
<path d="M2840 6601 c-12 -5 -16 -22 -15 -81 l0 -75 46 -6 c114 -17 275 -143
332 -259 62 -128 75 -261 34 -327 -29 -45 -44 -98 -39 -130 5 -33 56 -80 94
-86 18 -2 55 -4 82 -3 47 2 50 4 89 59 23 32 37 63 34 71 -4 9 -27 21 -52 27
-25 6 -45 12 -45 13 0 1 5 17 10 36 28 94 -1 282 -61 405 -38 76 -68 115 -146
191 -71 70 -217 149 -293 160 -24 3 -47 7 -50 9 -3 1 -12 0 -20 -4z"/>
<path d="M5395 6356 c-8 -19 -15 -39 -15 -42 0 -4 -27 -33 -59 -64 -60 -57
-82 -103 -97 -200 -13 -85 -40 -138 -170 -335 -53 -80 -125 -208 -167 -296
l-74 -155 31 -14 c17 -7 46 -24 65 -36 19 -13 38 -21 43 -18 5 3 42 74 82 158
42 89 110 207 161 282 125 185 172 285 191 409 7 49 24 77 65 107 63 47 88
122 57 170 -8 13 -34 33 -57 46 l-41 24 -15 -36z"/>
<path d="M4869 6133 c-19 -21 -75 -83 -124 -138 -168 -187 -264 -273 -358
-322 -56 -29 -51 -29 -317 -21 -153 5 -167 3 -164 -25 1 -12 3 -47 3 -77 l1
-56 118 -1 c64 -1 159 -3 211 -6 51 -3 107 -1 125 5 98 31 213 104 315 202 75
71 333 350 339 367 4 9 -97 109 -109 109 -3 0 -21 -17 -40 -37z"/>
<path d="M2000 5400 c-14 -4 -68 -18 -120 -30 -330 -77 -502 -186 -600 -381
-35 -68 -73 -201 -95 -329 -9 -52 -18 -105 -20 -116 -3 -19 3 -23 41 -29 24
-3 46 -6 49 -6 2 0 18 -4 35 -9 16 -5 30 -7 30 -6 0 26 46 260 62 316 65 223
181 313 518 399 83 21 153 41 156 44 5 4 -25 159 -30 156 0 0 -12 -4 -26 -9z"/>
<path d="M4405 4999 c-74 -19 -199 -34 -275 -32 -25 1 -70 3 -101 4 -66 2
-114 -24 -126 -69 -11 -43 -3 -360 12 -442 1 -8 6 -40 9 -70 9 -72 46 -243 55
-253 4 -4 26 -1 49 7 44 16 44 16 65 16 34 1 39 15 24 76 -9 32 -21 93 -27
134 -6 41 -13 84 -15 95 -4 25 -16 206 -19 286 l-2 57 85 -1 c80 0 185 8 221
18 8 2 27 7 43 10 62 12 78 16 102 25 14 5 25 13 25 17 0 16 -44 143 -49 142
-3 0 -37 -9 -76 -20z"/>
<path d="M5294 4982 c-5 -4 -10 -16 -11 -27 -1 -11 -5 -42 -9 -70 -4 -27 -7
-65 -8 -82 0 -18 -3 -33 -6 -33 -3 0 -5 -15 -6 -33 0 -17 -4 -54 -8 -82 -10
-71 -14 -102 -21 -170 -11 -105 -14 -129 -20 -175 -3 -25 -8 -65 -11 -90 -3
-25 -7 -61 -10 -80 -2 -19 -6 -51 -8 -70 -2 -19 -5 -35 -6 -35 -1 0 -3 -19 -4
-42 -2 -45 7 -51 74 -58 24 -3 60 -9 110 -21 14 -3 43 -8 65 -11 21 -2 44 -7
50 -11 11 -7 11 -7 75 -17 25 -3 59 -9 75 -12 68 -13 78 -10 87 27 7 34 19
138 19 171 0 18 -2 18 156 -5 18 -2 37 -7 42 -10 14 -9 19 14 14 69 -9 118
-12 150 -13 150 -2 0 -5 31 -14 140 -2 33 -5 60 -6 60 -1 0 -3 16 -5 35 -5 57
-16 152 -22 190 -2 19 -5 56 -6 82 -1 27 -4 48 -7 48 -4 0 -6 10 -7 23 -2 58
-8 89 -20 99 -13 11 -48 15 -203 22 -47 3 -85 5 -85 6 0 1 -49 3 -110 6 -60 2
-115 6 -121 8 -6 2 -15 1 -20 -2z"/>
<path d="M2050 4799 c-116 -14 -138 -18 -195 -38 -68 -24 -160 -83 -182 -118
-23 -35 -30 -81 -21 -150 l7 -63 -89 -126 c-94 -131 -165 -243 -159 -249 2 -1
34 -19 70 -39 l66 -36 36 58 c20 32 76 115 125 184 50 69 95 142 101 161 11
31 7 138 -5 158 -10 18 72 63 140 79 80 18 110 21 242 25 71 2 132 4 136 4 6
1 6 77 -1 147 -1 12 -177 13 -271 3z"/>
<path d="M2558 4422 l-37 -3 5 -77 c3 -42 18 -156 34 -252 16 -96 31 -195 35
-220 3 -25 8 -56 10 -70 2 -14 7 -47 10 -75 3 -27 8 -61 10 -75 2 -14 6 -47
10 -75 3 -27 8 -66 11 -85 3 -19 7 -46 9 -60 13 -92 19 -125 37 -203 23 -101
14 -97 124 -56 44 17 54 24 49 37 -24 58 -40 150 -80 447 -22 168 -24 187 -30
215 -2 14 -7 45 -10 70 -5 47 -10 74 -25 155 -18 95 -25 147 -35 280 -2 17 -3
36 -4 43 -1 13 -13 13 -123 4z"/>
<path d="M1030 4054 c0 -5 -7 -40 -15 -79 -8 -38 -17 -86 -20 -105 -12 -68
-36 -156 -62 -220 -55 -139 -64 -246 -26 -299 23 -32 94 -68 148 -75 26 -3 47
-13 61 -29 58 -68 143 -62 202 13 48 62 130 264 111 275 -5 4 -39 14 -74 24
-63 18 -66 18 -75 0 -6 -10 -10 -24 -10 -31 -1 -7 -9 -31 -20 -53 -11 -22 -19
-45 -20 -51 -1 -28 -23 -33 -64 -12 -23 12 -42 20 -44 19 -1 -2 -20 0 -42 4
-40 7 -41 7 -34 43 4 21 19 69 35 108 15 39 35 100 44 135 19 72 17 63 39 184
9 50 19 98 22 107 4 13 -4 19 -33 27 -63 17 -123 24 -123 15z"/>
<path d="M4310 3763 c0 -5 -25 -26 -55 -47 -30 -22 -55 -42 -55 -44 0 -6 43
-63 76 -102 27 -32 175 -202 189 -216 107 -115 262 -307 330 -408 53 -80 135
-241 135 -266 0 -6 6 -10 13 -8 134 39 139 42 132 73 -15 79 -146 304 -252
435 -88 109 -107 133 -117 144 -6 6 -45 49 -86 96 -41 47 -77 87 -81 90 -15
14 -191 223 -202 240 -12 20 -27 27 -27 13z"/>
<path d="M3663 3380 c-41 -9 -57 -22 -77 -64 -20 -43 -20 -95 0 -188 8 -40 17
-120 19 -178 4 -111 13 -235 20 -285 3 -16 7 -48 10 -70 9 -65 36 -195 57
-274 11 -40 18 -88 16 -107 -4 -32 -3 -33 67 -63 42 -18 74 -26 79 -20 22 21
18 124 -8 231 -54 221 -70 338 -81 603 -2 61 -11 143 -19 183 -9 40 -16 75
-16 77 0 2 20 27 45 56 24 28 42 56 39 61 -18 29 -99 49 -151 38z"/>
<path d="M5647 3133 c-3 -4 -8 -24 -11 -43 -3 -19 -8 -45 -11 -57 -12 -53 -15
-69 -20 -93 -10 -51 -34 -166 -40 -190 -3 -14 -8 -43 -10 -65 -3 -22 -7 -51
-10 -65 -3 -14 -8 -40 -11 -59 -3 -18 -8 -43 -10 -55 -2 -11 -7 -36 -10 -55
-3 -18 -8 -43 -10 -55 -3 -11 -7 -39 -10 -61 -3 -22 -8 -47 -10 -55 -3 -8 -8
-30 -10 -49 -3 -19 -8 -51 -13 -72 -10 -46 -7 -50 74 -79 33 -12 69 -25 80
-30 114 -47 258 -99 265 -95 8 5 14 27 25 95 4 19 11 38 18 42 8 5 8 8 1 8 -8
0 -8 16 1 60 7 32 10 62 7 65 -3 3 0 5 6 5 6 0 9 7 5 16 -8 20 20 16 152 -26
55 -18 105 -33 110 -35 6 -1 23 -7 38 -13 16 -7 34 -12 42 -12 8 0 17 -5 20
-10 12 -20 27 3 22 34 -15 77 -18 93 -23 116 -11 45 -16 75 -19 100 -2 14 -4
25 -5 25 -3 0 -12 41 -13 68 -1 15 -5 27 -9 27 -4 0 -7 8 -7 18 0 17 -5 47
-14 87 -3 11 -15 67 -27 124 -12 57 -26 114 -30 127 -5 12 -6 24 -3 27 3 3 1
12 -3 19 -5 7 -9 18 -9 23 -1 6 -7 38 -14 73 l-14 62 -39 0 c-22 0 -37 4 -34
9 4 5 -9 6 -29 1 -19 -4 -37 -5 -40 -2 -6 6 -15 8 -80 16 -22 3 -58 8 -80 11
-22 3 -58 7 -80 10 -22 2 -54 7 -72 10 -17 3 -33 2 -36 -2z"/>
<path d="M1149 2977 c-2 -3 -5 -162 -13 -689 l-6 -407 318 2 317 2 0 545 0
545 -307 2 c-170 2 -309 2 -309 0z"/>
<path d="M4004 2872 c-20 -26 -44 -52 -51 -59 -12 -9 -4 -19 43 -53 31 -24 66
-48 78 -54 48 -25 154 -106 170 -130 23 -35 25 -84 9 -186 -22 -139 -66 -268
-162 -473 -22 -49 -41 -90 -41 -92 0 -2 32 -19 70 -38 62 -30 72 -32 79 -18
102 193 201 477 217 621 14 122 9 181 -20 239 -35 69 -91 119 -236 213 l-119
77 -37 -47z"/>
<path d="M2993 2728 l-71 -30 10 -31 c6 -18 21 -68 33 -112 13 -44 28 -93 34
-108 6 -15 13 -42 16 -59 6 -34 -13 -56 -78 -89 -38 -20 -57 -38 -202 -190
-69 -72 -213 -196 -308 -264 l-28 -20 46 -60 c26 -33 50 -61 53 -62 10 -4 238
180 309 248 32 31 84 86 116 122 32 36 82 80 112 97 62 36 130 108 138 147 9
48 -1 119 -31 214 -17 52 -38 119 -46 149 -9 30 -20 60 -24 66 -5 7 -30 1 -79
-18z"/>
<path d="M4747 2117 c-78 -280 -164 -478 -271 -617 -86 -113 -107 -193 -67
-254 20 -29 151 -156 162 -156 4 0 30 25 58 55 l50 56 -65 62 -65 62 65 91
c72 99 149 246 197 376 63 170 134 420 125 443 -3 10 -119 55 -138 55 -2 0
-25 -78 -51 -173z"/>
<path d="M3270 1983 c-117 -68 -246 -196 -380 -374 -97 -129 -105 -136 -194
-165 -45 -15 -98 -38 -118 -51 -88 -55 -120 -162 -83 -277 12 -37 26 -71 32
-77 8 -8 28 -2 70 21 32 17 61 35 66 39 4 4 1 24 -8 44 -35 85 -12 121 96 151
109 31 135 52 257 207 155 197 271 312 356 350 14 7 26 17 26 23 0 14 -62 136
-70 136 -3 0 -25 -12 -50 -27z"/>
<path d="M2020 1477 c-20 -16 -72 -92 -101 -147 -32 -63 -32 -148 1 -215 61
-126 272 -274 555 -390 39 -16 86 -38 105 -49 121 -68 143 -77 182 -79 28 -1
42 2 41 10 -1 6 -5 26 -8 45 -17 101 -12 94 -93 140 -43 25 -117 61 -167 82
-187 79 -371 187 -433 255 -32 36 -51 80 -45 110 2 14 24 53 49 88 l45 62 -42
38 c-64 58 -72 63 -89 50z"/>
<path d="M3851 1328 c-6 -18 -13 -51 -16 -73 -4 -22 -8 -51 -11 -65 -7 -39 -6
-195 2 -237 9 -50 26 -82 61 -114 55 -51 83 -60 208 -64 104 -3 217 17 367 66
l99 33 67 -17 c37 -9 70 -17 73 -17 4 0 14 28 24 62 9 34 19 67 22 74 6 17
-100 50 -169 53 -44 2 -82 -6 -160 -33 -92 -31 -240 -64 -293 -65 -11 0 -44 2
-73 5 -46 5 -54 9 -63 32 -15 39 -12 164 6 257 8 44 15 85 15 90 0 9 -116 45
-142 45 -3 0 -11 -15 -17 -32z"/>
</g>
</svg>
